<svg width="200" height="200" viewBox="0 0 32 32" fill="none" xmlns="http://www.w3.org/2000/svg">
<path id="hand" d="M4.1198 10.2901C4.09892 10.267 4.07385 10.2478 4.04982 10.2276C4.03304 10.2027 4.0173 10.1769 3.99448 10.1527L3.25996 9.34019C2.99232 9.04452 2.53489 9.02175 2.24022 9.28944C1.9435 9.55802 1.92079 10.0145 2.18937 10.3112L2.44561 10.5943L1.57323 11.3849L1.31604 11.1007C1.04841 10.8051 0.590973 10.7823 0.294305 11.0499C-0.000414805 11.3186 -0.0231813 11.776 0.243453 12.0716L0.978022 12.8831C1.01788 12.9272 1.06219 12.9624 1.10963 12.9948C1.11243 12.999 1.11523 13.0031 1.11902 13.0073C1.45314 13.3754 2.01944 13.4035 2.38845 13.0705L4.05767 11.5586C4.42563 11.2265 4.45397 10.6572 4.1198 10.2901Z" fill="white"/>
<path id="legLeft" d="M15.164 29.555C15.449 29.409 15.644 29.117 15.644 28.774C15.644 28.391 15.397 28.067 15.055 27.946C15.397 27.826 15.644 27.503 15.644 27.119C15.644 26.733 15.394 26.409 15.048 26.29C15.394 26.171 15.644 25.847 15.644 25.46C15.644 24.974 15.249 24.58 14.763 24.58H14.2C13.714 24.58 13.318 24.976 13.318 25.46C13.318 25.847 13.568 26.171 13.915 26.29C13.568 26.409 13.318 26.733 13.318 27.119C13.318 27.503 13.565 27.826 13.908 27.946C13.565 28.067 13.318 28.391 13.318 28.774C13.318 29.065 13.463 29.321 13.68 29.483C12.566 29.761 11.741 30.766 11.741 31.965C15.569 31.965 14.26 31.965 16.864 31.965C16.863 30.852 16.154 29.909 15.164 29.555Z" fill="white"/>
<path id="legRight" d="M21.714 29.518C21.932 29.358 22.075 29.102 22.075 28.809C22.075 28.426 21.828 28.104 21.485 27.983C21.829 27.862 22.075 27.539 22.075 27.156C22.075 26.77 21.825 26.446 21.478 26.326C21.825 26.207 22.075 25.883 22.075 25.497C22.075 25.01 21.68 24.615 21.193 24.615H20.631C20.145 24.615 19.75 25.01 19.75 25.497C19.75 25.883 20 26.207 20.346 26.326C20 26.446 19.75 26.77 19.75 27.156C19.75 27.539 19.997 27.862 20.338 27.983C19.997 28.104 19.75 28.426 19.75 28.809C19.75 29.151 19.946 29.444 20.23 29.591C19.241 29.945 18.531 30.889 18.531 32C21.135 32 19.826 32 23.654 32C23.655 30.8 22.829 29.795 21.714 29.518Z" fill="white"/>
<path id="armRight"  d="M31.81 20.4769L31.191 19.5729C31.159 19.5239 31.119 19.4829 31.077 19.4439C31.075 19.4399 31.071 19.4359 31.069 19.4299C30.796 19.0309 30.255 18.9229 29.848 19.1819C29.824 19.1099 29.791 19.0389 29.746 18.9749C29.558 18.6989 29.243 18.5669 28.933 18.5929C29.07 18.3129 29.06 17.9709 28.872 17.6969C28.65 17.3749 28.259 17.2459 27.901 17.3419C28.066 17.0549 28.067 16.6879 27.868 16.3949C27.677 16.1159 27.354 15.9829 27.04 16.0159C27.143 15.7489 27.119 15.4389 26.944 15.1849C26.756 14.9099 26.441 14.7769 26.132 14.8039C26.269 14.5239 26.259 14.1819 26.07 13.9079C25.793 13.5009 25.236 13.3969 24.83 13.6759L24.357 13.9989C23.952 14.2779 23.846 14.8329 24.126 15.2399C24.314 15.5149 24.631 15.6479 24.939 15.6219C24.803 15.9019 24.812 16.2439 25.001 16.5179C25.191 16.7979 25.514 16.9299 25.829 16.8989C25.725 17.1649 25.75 17.4749 25.924 17.7289C26.144 18.0499 26.537 18.1779 26.894 18.0829C26.728 18.3709 26.728 18.7389 26.928 19.0309C27.117 19.3049 27.432 19.4379 27.742 19.4119C27.604 19.6899 27.614 20.0329 27.804 20.3079C27.848 20.3719 27.902 20.4269 27.958 20.4759C27.555 20.7579 27.452 21.3119 27.73 21.7199C27.749 21.7459 27.77 21.7669 27.792 21.7909C27.806 21.8189 27.817 21.8469 27.837 21.8739L28.456 22.7759C28.681 23.1059 29.131 23.1899 29.46 22.9639C29.789 22.7359 29.874 22.2879 29.648 21.9579L29.432 21.6429L30.404 20.9789L30.621 21.2939C30.847 21.6229 31.296 21.7069 31.625 21.4819C31.953 21.2549 32.037 20.8049 31.81 20.4769Z" fill="white"/>
<path id="armLeft" d="M10.771 13.815C10.422 13.466 9.85701 13.466 9.50801 13.815C9.23301 14.091 9.17801 14.501 9.33801 14.834C9.02501 14.724 8.66401 14.792 8.41301 15.042C8.20101 15.254 8.11901 15.546 8.16501 15.821C8.10601 15.813 8.04901 15.803 7.98801 15.803C7.92001 15.803 7.85201 15.813 7.78601 15.824C7.80401 15.574 7.72201 15.319 7.53101 15.128C7.25601 14.852 6.84401 14.798 6.51101 14.959C6.62101 14.645 6.55301 14.284 6.30301 14.033C6.04101 13.771 5.65701 13.706 5.33501 13.838C5.48001 13.51 5.42001 13.115 5.15001 12.846C4.80201 12.497 4.23601 12.497 3.88701 12.846L3.48601 13.25C3.13701 13.599 3.13701 14.164 3.48601 14.513C3.74901 14.775 4.13201 14.84 4.45501 14.709C4.31001 15.036 4.37101 15.432 4.63801 15.7C4.91401 15.975 5.32501 16.03 5.65801 15.87C5.54901 16.183 5.61601 16.545 5.86601 16.795C6.10401 17.033 6.44201 17.106 6.74501 17.018C6.74501 17.031 6.74201 17.041 6.74201 17.055C6.74201 17.744 7.30101 18.305 7.99201 18.305C8.68201 18.305 9.24201 17.745 9.24201 17.055C9.24201 17.016 9.23301 16.979 9.23001 16.94C9.52501 17.016 9.85101 16.942 10.083 16.711C10.358 16.435 10.413 16.024 10.252 15.692C10.565 15.801 10.926 15.734 11.177 15.484C11.526 15.135 11.526 14.57 11.177 14.221L10.771 13.815ZM7.99101 17.518C7.73301 17.518 7.52601 17.311 7.52601 17.055C7.52601 16.798 7.73401 16.589 7.99101 16.589C8.24701 16.589 8.45601 16.797 8.45601 17.055C8.45601 17.311 8.24801 17.518 7.99101 17.518Z" fill="white"/>
<path  id="eyeLeft" d="M14.122 6.77298V6.08198C14.122 5.74698 13.851 5.47498 13.515 5.47498H12.823C12.488 5.47498 12.217 5.74598 12.217 6.08198V6.77298C12.217 7.10798 12.488 7.38098 12.823 7.38098H13.514C13.849 7.38098 14.122 7.10798 14.122 6.77298Z" fill="white"/>
<path id="eyeRight" d="M21.538 6.08405V6.77505C21.538 7.11005 21.809 7.38305 22.144 7.38305H22.835C23.17 7.38305 23.441 7.11105 23.441 6.77505V6.08405C23.441 5.74905 23.17 5.47705 22.835 5.47705H22.144C21.809 5.47705 21.538 5.74905 21.538 6.08405Z" fill="white"/>
<path  id="circle" d="M16.3769 16.9735C15.8762 17.6806 16.0403 18.6604 16.748 19.1639C17.454 19.6663 18.4337 19.5021 18.9378 18.7936C19.4391 18.0857 19.2744 17.1067 18.5661 16.6041C17.8615 16.1014 16.8826 16.2661 16.3769 16.9735ZM18.1439 18.2284C17.9525 18.4962 17.5797 18.558 17.3129 18.3686C17.0451 18.1772 16.9814 17.8055 17.1727 17.5376C17.3633 17.2692 17.7352 17.2069 18.0037 17.3974C18.2721 17.588 18.3352 17.9605 18.1439 18.2284Z" fill="white"/>
<path id="body" d="M22.416 12.292H20.293C20.361 12.099 20.401 11.892 20.401 11.675C20.401 11.446 20.357 11.226 20.28 11.024H21.797C22.482 11.024 23.037 10.469 23.037 9.784V8.623H23.196C24.017 8.623 24.684 7.956 24.684 7.135V5.725C24.684 4.905 24.017 4.237 23.196 4.237H22.942C22.758 3.783 22.315 3.463 21.796 3.463H19.617L20.312 1.504C20.333 1.506 20.354 1.51 20.375 1.51C20.792 1.51 21.129 1.172 21.129 0.756C21.129 0.339 20.791 0.002 20.375 0.002C19.959 0.002 19.622 0.339 19.622 0.756C19.622 1.019 19.757 1.25 19.961 1.384L19.222 3.463H17.83V3.46H16.436L15.699 1.382C15.902 1.247 16.038 1.016 16.038 0.754C16.038 0.337 15.7 0 15.284 0C14.868 0 14.529 0.337 14.529 0.754C14.529 1.17 14.867 1.508 15.284 1.508C15.305 1.508 15.326 1.504 15.346 1.501L16.042 3.46H13.861C13.341 3.46 12.899 3.78 12.715 4.234H12.463C11.643 4.234 10.976 4.901 10.976 5.721V7.131C10.976 7.951 11.643 8.618 12.463 8.618H12.623V9.78C12.623 10.465 13.178 11.02 13.861 11.02H15.378C15.301 11.222 15.257 11.44 15.257 11.67C15.257 11.888 15.297 12.096 15.366 12.29H12.901C12.216 12.29 11.662 12.845 11.662 13.53V22.732C11.662 23.418 12.217 23.972 12.901 23.972H22.415C23.1 23.972 23.654 23.417 23.654 22.732V13.53C23.655 12.846 23.1 12.292 22.416 12.292ZM24.187 5.725V7.135C24.187 7.682 23.743 8.127 23.195 8.127H21.786C21.238 8.127 20.794 7.682 20.794 7.135V5.725C20.794 5.178 21.238 4.733 21.786 4.733H23.195C23.743 4.733 24.187 5.178 24.187 5.725ZM11.471 7.132V5.722C11.471 5.175 11.916 4.731 12.463 4.731H13.873C14.419 4.731 14.863 5.175 14.863 5.722V7.132C14.863 7.678 14.42 8.123 13.873 8.123H12.463C11.917 8.124 11.471 7.679 11.471 7.132ZM16.482 8.325H17.83V8.327H19.177C19.694 8.327 20.113 8.652 20.113 9.054C20.113 9.455 19.695 9.781 19.177 9.781H17.83V9.78H16.482C15.965 9.78 15.546 9.454 15.546 9.052C15.546 8.651 15.965 8.325 16.482 8.325ZM21.015 18.335C21.012 18.417 20.943 18.481 20.861 18.479L20.442 18.465C20.358 18.861 20.189 19.238 19.947 19.567L20.232 19.873C20.289 19.933 20.285 20.026 20.225 20.083L19.708 20.565C19.68 20.592 19.641 20.608 19.601 20.606C19.561 20.604 19.524 20.587 19.497 20.559L19.22 20.261C18.873 20.492 18.478 20.647 18.065 20.709L18.051 21.122C18.048 21.205 17.979 21.268 17.897 21.266L17.19 21.244C17.108 21.24 17.044 21.171 17.045 21.09L17.059 20.689C16.648 20.607 16.259 20.433 15.919 20.181L15.641 20.441C15.58 20.498 15.486 20.495 15.43 20.435L14.947 19.916C14.894 19.858 14.897 19.76 14.956 19.706L15.227 19.452C14.993 19.097 14.839 18.694 14.779 18.272L14.424 18.26C14.342 18.257 14.278 18.19 14.279 18.106L14.302 17.399C14.305 17.317 14.374 17.253 14.456 17.255L14.812 17.268C14.901 16.85 15.083 16.456 15.345 16.116L15.098 15.851C15.073 15.823 15.057 15.785 15.058 15.745C15.059 15.705 15.077 15.668 15.105 15.641L15.623 15.157C15.684 15.101 15.776 15.105 15.833 15.164L16.087 15.437C16.441 15.212 16.839 15.067 17.252 15.013L17.265 14.65C17.268 14.568 17.336 14.504 17.418 14.506L18.126 14.53C18.208 14.533 18.272 14.602 18.269 14.684L18.257 15.059C18.661 15.149 19.042 15.327 19.371 15.579L19.662 15.308C19.689 15.281 19.728 15.266 19.768 15.268C19.808 15.269 19.845 15.286 19.872 15.315L20.354 15.833C20.411 15.893 20.408 15.987 20.347 16.043L20.05 16.319C20.271 16.667 20.416 17.057 20.474 17.461L20.892 17.476C20.974 17.478 21.039 17.547 21.037 17.629L21.015 18.335Z" fill="white"/>
</svg>
